# xmcd
#
# Track frame offsets:
# 150
# 22726
# 54691
# 83742
# 103317
# 133580
# 169006
# 194331
# 235301
# 265854
# 299941
# 316580
#
# Disc length: 4398 seconds
#
#
# Revision: 0
# Processed by: cddbd v1.5.2PL0 Copyright (c) Steve Scherf et al.
# Submitted via: FreeRIP 2.96 
#
DISCID=a8112c0c
DTITLE=Wolfgang Hohlbein - Nemesis - Die Zeit vor Mitternacht CD2
DYEAR=2006
DGENRE=Speech
TTITLE0=13 Die Zeit vor Mitternacht
TTITLE1=14 Die Zeit vor Mitternacht
TTITLE2=15 Die Zeit vor Mitternacht
TTITLE3=16 Die Zeit vor Mitternacht
TTITLE4=17 Die Zeit vor Mitternacht
TTITLE5=18 Die Zeit vor Mitternacht
TTITLE6=19 Die Zeit vor Mitternacht
TTITLE7=20 Die Zeit vor Mitternacht
TTITLE8=21 Die Zeit vor Mitternacht
TTITLE9=22 Die Zeit vor Mitternacht
TTITLE10=23 Die Zeit vor Mitternacht
TTITLE11=24 Die Zeit vor Mitternacht
EXTD=gelesen von Johannes Steck
EXTT0=
EXTT1=
EXTT2=
EXTT3=
EXTT4=
EXTT5=
EXTT6=
EXTT7=
EXTT8=
EXTT9=
EXTT10=
EXTT11=
PLAYORDER=
